<svg xmlns="http://www.w3.org/2000/svg" viewBox="0 0 420 420"><style type="text/css">.svg_icon_1{fill:#EC1F1F;}</style><path class="svg_icon_1" d="M186.9 396c-3.1 0-6.2-1.2-8.4-3.5 -2.2-2.2-3.5-5.2-3.5-8.4V366l-71.1 8.8c-3.7 0.5-7.4-0.9-10-3.6 -2.6-2.7-3.7-6.5-3.1-10.2l4.4-25.9 -79.9-60.6c-2.6-2-4.3-4.9-4.6-8.1 -0.4-3.2 0.6-6.5 2.7-8.9l15.1-18.1 -13.1-49c-1-3.7-0.1-7.5 2.2-10.5 2.4-2.9 6-4.6 9.8-4.4l52.4 2.4 15-17.8c2-2.4 5-3.9 8.1-4.2 3.2-0.3 6.3 0.8 8.7 2.9l27.6 23.9L111.6 70.1c-1-4.2 0.3-8.5 3.4-11.5 3.1-2.9 7.6-4 11.6-2.7l40.6 12.6L201 28.2c2.3-2.7 5.6-4.3 9.1-4.3 3.5 0 6.8 1.6 9.1 4.3l33.7 40.4L294.1 56c4.1-1.3 8.5-0.2 11.6 2.7 3.1 2.9 4.4 7.3 3.4 11.5l-27.9 112.3 27.3-23.8c2.4-2.1 5.6-3.1 8.8-2.9 3.2 0.3 6.2 1.8 8.2 4.3L340 178l52.7-2.7c3.8-0.2 7.4 1.4 9.8 4.4 2.4 3 3.2 6.9 2.2 10.5l-13.2 49.1 15.2 18.1c2.1 2.5 3.1 5.7 2.7 8.9 -0.4 3.2-2 6.2-4.6 8.1L323.8 336l4 25.2c0.6 3.7-0.6 7.4-3.2 10.1 -2.6 2.7-6.3 4-10 3.5l-69.3-8.8 0 18c0 6.5-5.3 11.8-11.8 11.8L186.9 396C186.9 396 186.9 396 186.9 396zM186.9 340.8c2.9 0 5.7 1 7.9 3 2.5 2.3 4 5.5 4 8.9v19.7l22.7-0.1 0.1-19.6c0-3.4 1.5-6.6 4-8.9 2.6-2.2 5.9-3.3 9.3-2.9l67 8.5 -2.6-16.6c-0.7-4.3 1.1-8.6 4.5-11.3l76.8-58.4 -11.1-13.3c-2.5-3-3.4-7-2.4-10.7l10.6-39.3 -42.4 2.2c-3.8 0.2-7.4-1.4-9.8-4.4l-10.6-13L268.4 225c-3.9 3.4-9.6 3.9-14 1.2 -4.4-2.7-6.6-8-5.3-13L281 84.8l-28.6 8.8c-4.6 1.4-9.5-0.1-12.6-3.7l-29.7-35.5 -29.7 35.5c-3.1 3.7-8 5.1-12.6 3.7l-28.1-8.7 31.6 128.4c1.2 5-0.9 10.3-5.3 13 -4.4 2.7-10.1 2.2-14-1.2l-46.7-40.5 -11 13.1c-2.4 2.8-5.9 4.4-9.6 4.2L42.6 200l10.5 39.3c1 3.7 0.1 7.7-2.4 10.7l-11.1 13.2 75.7 57.4c3.5 2.7 5.3 7.1 4.5 11.4l-2.9 17.3 68.6-8.5C185.9 340.8 186.4 340.8 186.9 340.8z"/></svg>